<svg width="74" height="32" viewBox="0 0 74 32" fill="none" xmlns="http://www.w3.org/2000/svg">
<path d="M45.3838 9.10352V13H44.0713V3.04688H47.7422C48.8314 3.04688 49.6836 3.32487 50.2988 3.88086C50.9186 4.43685 51.2285 5.17285 51.2285 6.08887C51.2285 7.05501 50.9255 7.80013 50.3193 8.32422C49.7178 8.84375 48.8542 9.10352 47.7285 9.10352H45.3838ZM45.3838 8.03027H47.7422C48.444 8.03027 48.9818 7.86621 49.3555 7.53809C49.7292 7.2054 49.916 6.72689 49.916 6.10254C49.916 5.51009 49.7292 5.03613 49.3555 4.68066C48.9818 4.3252 48.4691 4.14062 47.8174 4.12695H45.3838V8.03027ZM56.5537 8.97363H54.2158V13H52.8965V3.04688H56.1914C57.3125 3.04688 58.1738 3.30208 58.7754 3.8125C59.3815 4.32292 59.6846 5.06576 59.6846 6.04102C59.6846 6.66081 59.516 7.20085 59.1787 7.66113C58.846 8.12142 58.3812 8.46549 57.7842 8.69336L60.1221 12.918V13H58.7139L56.5537 8.97363ZM54.2158 7.90039H56.2324C56.8841 7.90039 57.4014 7.73177 57.7842 7.39453C58.1715 7.05729 58.3652 6.60612 58.3652 6.04102C58.3652 5.42578 58.1807 4.9541 57.8115 4.62598C57.4469 4.29785 56.9183 4.13151 56.2256 4.12695H54.2158V7.90039ZM69.1865 8.34473C69.1865 9.31999 69.0225 10.1722 68.6943 10.9014C68.3662 11.626 67.9014 12.1797 67.2998 12.5625C66.6982 12.9453 65.9964 13.1367 65.1943 13.1367C64.4105 13.1367 63.7155 12.9453 63.1094 12.5625C62.5033 12.1751 62.0316 11.626 61.6943 10.915C61.3617 10.1995 61.1908 9.3724 61.1816 8.43359V7.71582C61.1816 6.75879 61.348 5.91341 61.6807 5.17969C62.0133 4.44596 62.4827 3.88542 63.0889 3.49805C63.6995 3.10612 64.3968 2.91016 65.1807 2.91016C65.9782 2.91016 66.68 3.10384 67.2861 3.49121C67.8968 3.87402 68.3662 4.43229 68.6943 5.16602C69.0225 5.89518 69.1865 6.74512 69.1865 7.71582V8.34473ZM67.8809 7.70215C67.8809 6.52181 67.6439 5.61719 67.1699 4.98828C66.696 4.35482 66.0329 4.03809 65.1807 4.03809C64.3512 4.03809 63.6973 4.35482 63.2188 4.98828C62.7448 5.61719 62.501 6.49219 62.4873 7.61328V8.34473C62.4873 9.48861 62.7266 10.3887 63.2051 11.0449C63.6882 11.6966 64.3512 12.0225 65.1943 12.0225C66.042 12.0225 66.6982 11.7148 67.1631 11.0996C67.6279 10.4798 67.8672 9.59342 67.8809 8.44043V7.70215ZM5.70117 20.0449H5.91309C6.66504 20.0495 7.35091 20.2249 7.9707 20.5713C8.59049 20.9176 9.07129 21.3962 9.41309 22.0068C9.75944 22.613 9.93262 23.292 9.93262 24.0439C9.93262 24.8005 9.75944 25.4863 9.41309 26.1016C9.06673 26.7168 8.58822 27.1976 7.97754 27.5439C7.36686 27.8857 6.68783 28.0612 5.94043 28.0703H5.70117V29.4102H4.42969V28.0703H4.23828C3.47721 28.0703 2.78451 27.8971 2.16016 27.5508C1.54036 27.2044 1.05729 26.7259 0.710938 26.1152C0.369141 25.5046 0.198242 24.8187 0.198242 24.0576C0.198242 23.2965 0.369141 22.6107 0.710938 22C1.05729 21.3893 1.54036 20.9108 2.16016 20.5645C2.78451 20.2181 3.47721 20.0449 4.23828 20.0449H4.42969V18.6367H5.70117V20.0449ZM4.23828 21.0771C3.38151 21.0771 2.70247 21.3415 2.20117 21.8701C1.70443 22.3942 1.45605 23.1234 1.45605 24.0576C1.45605 24.9964 1.70443 25.7279 2.20117 26.252C2.69792 26.7715 3.38151 27.0312 4.25195 27.0312H4.42969V21.0771H4.23828ZM5.70117 21.0771V27.0312H5.89258C6.76302 27.0312 7.44206 26.7646 7.92969 26.2314C8.42188 25.6937 8.66797 24.9645 8.66797 24.0439C8.66797 23.1325 8.42188 22.4102 7.92969 21.877C7.44206 21.3438 6.75391 21.0771 5.86523 21.0771H5.70117ZM13.8086 27.1475L15.5312 21.6035H16.8848L13.9111 30.1416C13.4508 31.3721 12.7194 31.9873 11.7168 31.9873L11.4775 31.9668L11.0059 31.8779V30.8525L11.3477 30.8799C11.776 30.8799 12.1087 30.7933 12.3457 30.6201C12.5872 30.4469 12.7855 30.1302 12.9404 29.6699L13.2207 28.918L10.582 21.6035H11.9629L13.8086 27.1475ZM24.2676 25.3838C24.2676 26.5094 24.0101 27.4163 23.4951 28.1045C22.9801 28.7926 22.2829 29.1367 21.4033 29.1367C20.5055 29.1367 19.7992 28.8519 19.2842 28.2822V31.8438H18.0195V21.6035H19.1748L19.2363 22.4238C19.7513 21.7858 20.4668 21.4668 21.3828 21.4668C22.2715 21.4668 22.9733 21.8018 23.4883 22.4717C24.0078 23.1416 24.2676 24.0736 24.2676 25.2676V25.3838ZM23.0029 25.2402C23.0029 24.4062 22.8252 23.7477 22.4697 23.2646C22.1143 22.7816 21.6266 22.54 21.0068 22.54C20.2412 22.54 19.667 22.8796 19.2842 23.5586V27.0928C19.6624 27.7673 20.2412 28.1045 21.0205 28.1045C21.6266 28.1045 22.1074 27.8652 22.4629 27.3867C22.8229 26.9036 23.0029 26.1882 23.0029 25.2402ZM31.9238 29H30.6592V25.8418H27.2617V29H25.9902V21.6035H27.2617V24.8096H30.6592V21.6035H31.9238V29ZM38.7461 21.6035H40.0107V29H38.7461V23.6064L35.335 29H34.0703V21.6035H35.335V27.0039L38.7461 21.6035ZM47.5371 22.6289H45.0557V29H43.791V22.6289H41.3574V21.6035H47.5371V22.6289ZM51.2695 27.1475L52.9922 21.6035H54.3457L51.3721 30.1416C50.9118 31.3721 50.1803 31.9873 49.1777 31.9873L48.9385 31.9668L48.4668 31.8779V30.8525L48.8086 30.8799C49.237 30.8799 49.5697 30.7933 49.8066 30.6201C50.0482 30.4469 50.2464 30.1302 50.4014 29.6699L50.6816 28.918L48.043 21.6035H49.4238L51.2695 27.1475ZM61.7285 25.3838C61.7285 26.5094 61.471 27.4163 60.9561 28.1045C60.4411 28.7926 59.7438 29.1367 58.8643 29.1367C57.9665 29.1367 57.2601 28.8519 56.7451 28.2822V31.8438H55.4805V21.6035H56.6357L56.6973 22.4238C57.2122 21.7858 57.9277 21.4668 58.8438 21.4668C59.7324 21.4668 60.4342 21.8018 60.9492 22.4717C61.4688 23.1416 61.7285 24.0736 61.7285 25.2676V25.3838ZM60.4639 25.2402C60.4639 24.4062 60.2861 23.7477 59.9307 23.2646C59.5752 22.7816 59.0876 22.54 58.4678 22.54C57.7021 22.54 57.1279 22.8796 56.7451 23.5586V27.0928C57.1234 27.7673 57.7021 28.1045 58.4814 28.1045C59.0876 28.1045 59.5684 27.8652 59.9238 27.3867C60.2839 26.9036 60.4639 26.1882 60.4639 25.2402ZM67.9082 29C67.8353 28.8542 67.776 28.5944 67.7305 28.2207C67.1426 28.8314 66.4408 29.1367 65.625 29.1367C64.8958 29.1367 64.2965 28.9316 63.8271 28.5215C63.3623 28.1068 63.1299 27.5827 63.1299 26.9492C63.1299 26.179 63.4215 25.582 64.0049 25.1582C64.5928 24.7298 65.4176 24.5156 66.4795 24.5156H67.71V23.9346C67.71 23.4925 67.5778 23.1416 67.3135 22.8818C67.0492 22.6175 66.6595 22.4854 66.1445 22.4854C65.6934 22.4854 65.3151 22.5993 65.0098 22.8271C64.7044 23.055 64.5518 23.3307 64.5518 23.6543H63.2803C63.2803 23.2852 63.4102 22.9297 63.6699 22.5879C63.9342 22.2415 64.2897 21.9681 64.7363 21.7676C65.1875 21.5671 65.682 21.4668 66.2197 21.4668C67.0719 21.4668 67.7396 21.681 68.2227 22.1094C68.7057 22.5332 68.9564 23.1188 68.9746 23.8662V27.2705C68.9746 27.9495 69.0612 28.4896 69.2344 28.8906V29H67.9082ZM65.8096 28.0361C66.2061 28.0361 66.582 27.9336 66.9375 27.7285C67.293 27.5234 67.5505 27.2568 67.71 26.9287V25.4111H66.7188C65.1693 25.4111 64.3945 25.8646 64.3945 26.7715C64.3945 27.168 64.5267 27.4779 64.791 27.7012C65.0553 27.9245 65.3949 28.0361 65.8096 28.0361Z" fill="black"/>
<circle cx="72" cy="2" r="2" fill="#3B61FF"/>
</svg>
